<svg xmlns="http://www.w3.org/2000/svg" width="22.454" height="22.454" viewBox="0 0 22.454 22.454"><g transform="translate(-0.439 -0.439)"><path d="M17.156,18.884a9.307,9.307,0,0,1-5.49,1.9C5.2,20.788,1.5,13.394,1.5,13.394A17.052,17.052,0,0,1,6.177,7.9M9.726,6.222A8.429,8.429,0,0,1,11.667,6c6.47,0,10.167,7.394,10.167,7.394a17.1,17.1,0,0,1-2,2.948m-6.211-.989a2.773,2.773,0,1,1-3.919-3.919" transform="translate(0 -1.727)" fill="none" stroke="#191a1b" stroke-linecap="round" stroke-linejoin="round" stroke-width="1.5"/><path d="M1.5,1.5,21.833,21.833" fill="none" stroke="#191a1b" stroke-linecap="round" stroke-linejoin="round" stroke-width="1.5"/></g></svg>