<svg xmlns="http://www.w3.org/2000/svg" xmlns:xlink="http://www.w3.org/1999/xlink" width="138.728" height="115.924" viewBox="0 0 138.728 115.924">
  <defs>
    <clipPath id="clip-path">
      <rect id="Rectangle_3887" data-name="Rectangle 3887" width="138.728" height="115.924" fill="none" stroke="#000" stroke-width="4"/>
    </clipPath>
  </defs>
  <g id="Group_15540" data-name="Group 15540" clip-path="url(#clip-path)">
    <path id="Path_29438" data-name="Path 29438" d="M64.817,51.1,51.022,38.268H41.629s-6.863,4.913-12.092,6.7S18.263,46.4,12.675,40.81c5.472-5.79,10.933-11.322,10.933-11.322L34.2,18.778a11.076,11.076,0,0,1,7.238-2.687H58.414c3.65,0,11.09,0,14.785-3.7L88.362,1" transform="translate(25 1.972)" fill="none" stroke="#000" stroke-linecap="round" stroke-linejoin="round" stroke-width="4"/>
    <path id="Path_29439" data-name="Path 29439" d="M38.53,46.759C55.467,31.2,48.074,27.507,55.467,20.114l4.292-4.289" transform="translate(75.997 31.213)" fill="none" stroke="#000" stroke-linecap="round" stroke-miterlimit="10" stroke-width="4"/>
    <path id="Path_29440" data-name="Path 29440" d="M36,17.856s19.172,20.123,24.713,24.9S58.627,60.234,49.7,53.234C44.38,48.683,27.286,32.308,27.286,32.308" transform="translate(53.819 35.219)" fill="none" stroke="#000" stroke-linecap="round" stroke-miterlimit="10" stroke-width="4"/>
    <path id="Path_29441" data-name="Path 29441" d="M57.564,35.834c-1.632,3.87-8.21,12.954-16.6,6.614C35.645,37.9,24.591,27.437,24.591,27.437" transform="translate(48.504 54.117)" fill="none" stroke="#000" stroke-linecap="round" stroke-miterlimit="10" stroke-width="4"/>
    <path id="Path_29442" data-name="Path 29442" d="M49.235,35.682C45.428,43.365,38.752,46.469,32.7,41.7c-4.239-3.338-10.683-9.925-10.683-9.925" transform="translate(43.421 62.675)" fill="none" stroke="#000" stroke-linecap="round" stroke-miterlimit="10" stroke-width="4"/>
    <path id="Path_29443" data-name="Path 29443" d="M41.135,35.538C38.843,41.23,32.28,44.916,26.966,41.6,23.9,39.693,18.741,36,18.741,36" transform="translate(36.965 70.096)" fill="none" stroke="#000" stroke-linecap="round" stroke-miterlimit="10" stroke-width="4"/>
    <path id="Path_29444" data-name="Path 29444" d="M35.713,20.331C28.32,12.941,25.128,16.2,17.254,8.322L10.138,2" transform="translate(19.996 3.945)" fill="none" stroke="#000" stroke-linecap="round" stroke-miterlimit="10" stroke-width="4"/>
    <path id="Path_29445" data-name="Path 29445" d="M11.913,41.84C2.5,32.426,12.085,26.746,1,15.659" transform="translate(1.974 30.886)" fill="none" stroke="#000" stroke-linecap="round" stroke-miterlimit="10" stroke-width="4"/>
    <path id="Path_29446" data-name="Path 29446" d="M17.331,26.375l-.036-.039a6.683,6.683,0,0,0-9.461-.158L4.056,29.8a6.723,6.723,0,1,0,9.375,9.64l3.739-3.585A6.74,6.74,0,0,0,17.331,26.375Z" transform="translate(3.973 47.917)" fill="none" stroke="#000" stroke-linecap="round" stroke-miterlimit="10" stroke-width="4"/>
    <path id="Path_29447" data-name="Path 29447" d="M27.4,27.505l-.039-.036a6.679,6.679,0,0,0-9.458-.161L6.919,38.027a6.724,6.724,0,1,0,9.378,9.64L27.245,36.984A6.737,6.737,0,0,0,27.4,27.505Z" transform="translate(9.622 50.149)" fill="none" stroke="#000" stroke-linecap="round" stroke-miterlimit="10" stroke-width="4"/>
    <path id="Path_29448" data-name="Path 29448" d="M30.286,30.489l-.036-.039a6.687,6.687,0,0,0-9.461-.235L10.716,40.06a6.724,6.724,0,0,0,9.3,9.714l10.035-9.806A6.735,6.735,0,0,0,30.286,30.489Z" transform="translate(17.035 55.955)" fill="none" stroke="#000" stroke-linecap="round" stroke-miterlimit="10" stroke-width="4"/>
    <path id="Path_29449" data-name="Path 29449" d="M27.479,34.578l-.039-.039a6.685,6.685,0,0,0-9.461-.107l-2.586,2.509a6.725,6.725,0,0,0,9.431,9.589l2.547-2.473A6.734,6.734,0,0,0,27.479,34.578Z" transform="translate(26.39 64.15)" fill="none" stroke="#000" stroke-linecap="round" stroke-miterlimit="10" stroke-width="4"/>
    <path id="Path_29450" data-name="Path 29450" d="M45.953,21.23c-8.792,1.81-11.034-.431-15.736-3.374" transform="translate(59.6 35.219)" fill="none" stroke="#000" stroke-linecap="round" stroke-linejoin="round" stroke-width="4"/>
  </g>
</svg>
