<svg xmlns="http://www.w3.org/2000/svg" width="22.666" height="22.666" viewBox="0 0 22.666 22.666"><path d="M20.1-43.7v-9.562H18.106a6.35,6.35,0,0,1,.3,1.933,6.539,6.539,0,0,1-.944,3.431,6.885,6.885,0,0,1-2.568,2.486,7.091,7.091,0,0,1-3.542.915,6.894,6.894,0,0,1-4.973-2,6.479,6.479,0,0,1-2.066-4.833,6.35,6.35,0,0,1,.3-1.933H2.523V-43.7a.871.871,0,0,0,.258.642.871.871,0,0,0,.642.258H19.2a.878.878,0,0,0,.635-.258A.859.859,0,0,0,20.1-43.7Zm-5.526-4.744a4.182,4.182,0,0,0,1.335-3.121,4.182,4.182,0,0,0-1.335-3.121,4.47,4.47,0,0,0-3.224-1.291,4.453,4.453,0,0,0-3.21,1.291A4.182,4.182,0,0,0,6.8-51.568a4.182,4.182,0,0,0,1.335,3.121,4.453,4.453,0,0,0,3.21,1.291A4.47,4.47,0,0,0,14.572-48.447ZM20.1-56.881v-2.435a.991.991,0,0,0-.3-.716.971.971,0,0,0-.723-.3H16.513a.971.971,0,0,0-.723.3.991.991,0,0,0-.3.716v2.435a.983.983,0,0,0,.3.723.983.983,0,0,0,.723.3H19.08a.983.983,0,0,0,.723-.3A.983.983,0,0,0,20.1-56.881Zm2.568-3.069V-43.1a2.8,2.8,0,0,1-.856,2.051,2.8,2.8,0,0,1-2.051.856H2.907a2.8,2.8,0,0,1-2.051-.856A2.8,2.8,0,0,1,0-43.1V-59.95A2.8,2.8,0,0,1,.856-62a2.8,2.8,0,0,1,2.051-.856H19.759A2.8,2.8,0,0,1,21.81-62,2.8,2.8,0,0,1,22.666-59.95Z" transform="translate(0 62.857)" fill="#fff"/></svg>