<svg xmlns="http://www.w3.org/2000/svg" xmlns:xlink="http://www.w3.org/1999/xlink" width="24" height="24" viewBox="0 0 24 24"><defs><clipPath id="a"><path d="M1241.029,2750v-7.8c0-1.859-.038-4.243-2.587-4.243-2.588,0-2.984,2.021-2.984,4.109V2750h-4.97v-16.023h4.773v2.185h.07a5.226,5.226,0,0,1,4.707-2.587c5.034,0,5.961,3.317,5.961,7.623v8.8h-4.971Z" fill="none"/></clipPath><clipPath id="b"><rect width="4.976" height="16.023" transform="translate(1222.396 2733.977)" fill="none"/></clipPath><clipPath id="c"><path d="M1222,2728.882a2.882,2.882,0,1,1,2.882,2.909A2.882,2.882,0,0,1,1222,2728.882Z" fill="none"/></clipPath></defs><g transform="translate(11114 8038)"><g transform="translate(-12336 -10764)"><g clip-path="url(#a)"><rect width="25.511" height="26.426" transform="translate(1225.489 2728.574)" fill="#fff"/></g></g><g transform="translate(-12336 -10764)"><g clip-path="url(#b)"><rect width="14.976" height="26.023" transform="translate(1217.396 2728.977)" fill="#fff"/></g></g><g transform="translate(-12336 -10764)"><g clip-path="url(#c)"><rect width="15.764" height="15.791" transform="translate(1217 2721)" fill="#fff"/></g></g></g></svg>