<svg xmlns="http://www.w3.org/2000/svg" xmlns:xlink="http://www.w3.org/1999/xlink" width="24" height="17" viewBox="0 0 24 17"><defs><clipPath id="a"><path d="M1120.61,2746.48a3.025,3.025,0,0,1-2.116-2.139,34.767,34.767,0,0,1,0-11.68,3.087,3.087,0,0,1,2.115-2.16c1.879-.5,9.392-.5,9.392-.5s7.511,0,9.39.52a3.023,3.023,0,0,1,2.115,2.14,30.737,30.737,0,0,1,.495,5.86,32.426,32.426,0,0,1-.494,5.84,3.029,3.029,0,0,1-2.116,2.14c-1.878.5-9.39.5-9.39.5S1122.507,2747,1120.61,2746.48Zm7-4.34,6.247-3.64-6.247-3.64Z" fill="none"/></clipPath></defs><g transform="translate(-1118 -2730)" clip-path="url(#a)"><rect width="34" height="27" transform="translate(1113 2725)" fill="#fff"/></g></svg>